<svg xmlns="http://www.w3.org/2000/svg" width="74.456" height="101.172" viewBox="0 0 74.456 101.172">
  <g id="Group_141486" data-name="Group 141486" transform="translate(-2093.36 174.151)">
    <path id="Path_39337" data-name="Path 39337" d="M53.678,19.181l8.885,3.455A29.166,29.166,0,0,0,5.081,26.628h7.3a21.907,21.907,0,0,1,41.3-7.446" transform="translate(2096.767 -174.151)" fill="#f57a38"/>
    <path id="Path_39338" data-name="Path 39338" d="M32.545,61.154q-10.9-6.787-16.5-15.836c-3.132,2.817-6.142,5.755-9.032,8.731A80.091,80.091,0,0,0,26.654,73.713a10.121,10.121,0,0,0,11.8-.017q14.956-10.79,22.757-24.686c.281-8.218-2.93-11.074-9.312-9.208q-5.3,12.559-19.35,21.351" transform="translate(2098.063 -148.58)" fill="#f57a38" fill-rule="evenodd"/>
    <path id="Path_39339" data-name="Path 39339" d="M36.332,34.435A197.015,197.015,0,0,1,55.681,50.31c3.17,2.936,6.262,5.991,9.312,9.207a63.236,63.236,0,0,0,6.262-15.558A109.169,109.169,0,0,0,36.332,23.123,109.8,109.8,0,0,0,1.367,43.959,66.531,66.531,0,0,0,7.629,59.517a201.81,201.81,0,0,1,28.7-25.082" transform="translate(2094.277 -159.088)" fill="#f57a38" fill-rule="evenodd"/>
    <path id="Path_39340" data-name="Path 39340" d="M22.3,20.676Q45.06,32.819,58.628,43.257a83.013,83.013,0,0,0,.321-21.71,111.2,111.2,0,0,0-18.586-7.62C29.2,13.175,23.1,15.356,22.3,20.676" transform="translate(2108.31 -165.172)" fill="#f9b020" fill-rule="evenodd"/>
    <path id="Path_39341" data-name="Path 39341" d="M.877,44.267q21.017-15,36.371-22.582a82.545,82.545,0,0,1,18.064-6.748c-.058-.018-.117-.036-.175-.053a61.835,61.835,0,0,0-36.291.145A110.424,110.424,0,0,0,.557,22.557a83.013,83.013,0,0,0,.321,21.71" transform="translate(2093.36 -166.181)" fill="#f57a38" fill-rule="evenodd"/>
  </g>
</svg>
